<svg width="48" height="48" viewBox="0 0 48 48" fill="none" xmlns="http://www.w3.org/2000/svg">
<circle cx="24" cy="24" r="24" fill="#B8994B"/>
<path d="M4.728 33V15.12H12.264C15.792 15.12 17.928 17.016 17.928 20.16C17.928 21.384 17.472 22.488 16.488 23.376C18.096 24.408 18.648 25.896 18.648 27.528C18.648 30.96 16.248 33 12.264 33H4.728ZM7.992 22.056H12.432C13.776 22.056 14.64 21.192 14.64 19.944C14.64 18.696 13.776 17.904 12.432 17.904H7.992V22.056ZM7.992 30.12H12.6C14.28 30.12 15.384 29.088 15.384 27.528C15.384 25.944 14.28 24.912 12.6 24.912H7.992V30.12ZM24.4234 33L19.6234 15.12H23.1274L26.4394 28.56L29.9194 15.12H33.3034L36.7594 28.56L40.0714 15.12H43.5754L38.7754 33H35.0314L31.5994 20.136L28.1674 33H24.4234Z" fill="#1B3468"/>
</svg>
