<svg width="281" height="56" viewBox="0 0 281 56" fill="none" xmlns="http://www.w3.org/2000/svg">
<circle cx="24" cy="32" r="24" fill="#B8994B"/>
<path d="M4.728 41V23.12H12.264C15.792 23.12 17.928 25.016 17.928 28.16C17.928 29.384 17.472 30.488 16.488 31.376C18.096 32.408 18.648 33.896 18.648 35.528C18.648 38.96 16.248 41 12.264 41H4.728ZM7.992 30.056H12.432C13.776 30.056 14.64 29.192 14.64 27.944C14.64 26.696 13.776 25.904 12.432 25.904H7.992V30.056ZM7.992 38.12H12.6C14.28 38.12 15.384 37.088 15.384 35.528C15.384 33.944 14.28 32.912 12.6 32.912H7.992V38.12ZM24.4234 41L19.6234 23.12H23.1274L26.4394 36.56L29.9194 23.12H33.3034L36.7594 36.56L40.0714 23.12H43.5754L38.7754 41H35.0314L31.5994 28.136L28.1674 41H24.4234Z" fill="#1B3468"/>
<path d="M61.728 44V26.12H69.264C72.792 26.12 74.928 28.016 74.928 31.16C74.928 32.384 74.472 33.488 73.488 34.376C75.096 35.408 75.648 36.896 75.648 38.528C75.648 41.96 73.248 44 69.264 44H61.728ZM64.992 33.056H69.432C70.776 33.056 71.64 32.192 71.64 30.944C71.64 29.696 70.776 28.904 69.432 28.904H64.992V33.056ZM64.992 41.12H69.6C71.28 41.12 72.384 40.088 72.384 38.528C72.384 36.944 71.28 35.912 69.6 35.912H64.992V41.12ZM78.3218 44V26.12H84.9698C88.6178 26.12 91.1858 28.136 91.1858 31.76C91.1858 34.232 89.9378 36.008 87.9458 36.824L92.0498 44H88.3538L84.6578 37.4H81.5858V44H78.3218ZM81.5858 34.52H85.0178C86.7698 34.52 87.9218 33.44 87.9218 31.76C87.9218 30.08 86.7698 29 85.0178 29H81.5858V34.52ZM94.1889 44V26.12H106.069V29H97.4529V33.584H105.589V36.464H97.4529V41.12H106.069V44H94.1889ZM111.798 44L106.998 26.12H110.502L113.814 39.56L117.294 26.12H120.678L124.134 39.56L127.446 26.12H130.95L126.15 44H122.406L118.974 31.136L115.542 44H111.798ZM132.931 44V26.12H144.811V29H136.195V33.584H144.331V36.464H136.195V41.12H144.811V44H132.931ZM147.205 44V26.12H153.853C157.501 26.12 160.069 28.136 160.069 31.76C160.069 34.232 158.821 36.008 156.829 36.824L160.933 44H157.237L153.541 37.4H150.469V44H147.205ZM150.469 34.52H153.901C155.653 34.52 156.805 33.44 156.805 31.76C156.805 30.08 155.653 29 153.901 29H150.469V34.52ZM170.673 44L165.873 26.12H169.377L172.689 39.56L176.169 26.12H179.553L183.009 39.56L186.321 26.12H189.825L185.025 44H181.281L177.849 31.136L174.417 44H170.673ZM189.381 44L195.549 26.12H199.773L205.941 44H202.389L201.117 40.16H194.205L192.909 44H189.381ZM195.141 37.28H200.181L197.661 29.744L195.141 37.28ZM207.931 44V26.12H211.195V41.12H218.851V44H207.931ZM220.962 44V26.12H224.226V41.12H231.882V44H220.962ZM232.53 44L238.698 26.12H242.922L249.09 44H245.538L244.266 40.16H237.354L236.058 44H232.53ZM238.29 37.28H243.33L240.81 29.744L238.29 37.28ZM258.753 44.288C253.641 44.288 249.825 40.376 249.825 35.048C249.825 29.72 253.617 25.832 258.753 25.832C262.569 25.832 265.353 27.992 266.289 30.536L263.361 31.904C262.665 30.104 261.009 28.808 258.753 28.808C255.393 28.808 253.089 31.328 253.089 35.048C253.089 38.792 255.393 41.312 258.753 41.312C261.009 41.312 262.665 40.016 263.361 38.216L266.289 39.584C265.353 42.128 262.569 44.288 258.753 44.288ZM268.939 44V26.12H280.819V29H272.203V33.584H280.339V36.464H272.203V41.12H280.819V44H268.939Z" fill="white"/>
</svg>
