<svg width="48" height="48" viewBox="0 0 48 48" fill="none" xmlns="http://www.w3.org/2000/svg">
<g clip-path="url(#clip0_78_1131)">
<path d="M24 10C26.758 10 29 7.756 29 5C29 2.244 26.758 0 24 0C21.242 0 19 2.244 19 5C19 7.756 21.242 10 24 10ZM24 2C25.654 2 27 3.346 27 5C27 6.654 25.654 8 24 8C22.346 8 21 6.654 21 5C21 3.346 22.346 2 24 2ZM48 11V31.202C48 35.208 46.44 38.974 43.608 41.808L37.708 47.708C37.512 47.904 37.256 48 37 48C36.744 48 36.488 47.902 36.292 47.708C35.902 47.318 35.902 46.684 36.292 46.294L42.192 40.394C44.648 37.938 45.998 34.674 45.998 31.202V11C45.998 9.346 44.652 8 42.998 8C41.344 8 39.998 9.346 39.998 11C39.998 11 40.002 27.072 39.998 27.108C39.974 28.212 39.58 29.31 38.83 30.2L33.552 35.692C33.356 35.896 33.094 35.998 32.832 35.998C32.582 35.998 32.332 35.906 32.138 35.718C31.74 35.336 31.728 34.702 32.11 34.304L37.342 28.862C37.792 28.324 38.01 27.636 37.996 26.944V26.926C37.978 26.234 37.724 25.54 37.232 24.99C36.698 24.396 35.964 24.042 35.168 23.998C34.378 23.958 33.604 24.224 33.008 24.758L27.55 29.782C26.508 30.742 25.7 31.888 25.092 33.164C25.674 34.656 25.996 36.248 25.996 37.876V46.994C25.996 47.546 25.548 47.994 24.996 47.994C24.444 47.994 23.996 47.546 23.996 46.994V37.876C23.996 34.81 22.702 31.858 20.444 29.78L14.976 24.748C14.392 24.222 13.626 23.956 12.826 23.998C12.03 24.042 11.294 24.394 10.762 24.99C9.77405 26.092 9.74605 27.778 10.698 28.91L15.886 34.3C16.268 34.698 16.258 35.332 15.858 35.714C15.464 36.096 14.824 36.086 14.444 35.686L9.21205 30.244C8.45205 29.34 8.03805 28.246 8.00005 27.15C7.99205 27.096 8.00005 10.992 8.00005 10.992C8.00005 9.338 6.65405 7.992 5.00005 7.992C3.34605 7.992 2.00005 9.338 2.00005 10.992V31.194C2.00005 34.666 3.35205 37.93 5.80605 40.386L11.706 46.286C12.096 46.676 12.096 47.31 11.706 47.7C11.51 47.896 11.254 47.992 10.998 47.992C10.742 47.992 10.486 47.894 10.29 47.7L4.39005 41.8C1.55805 38.966 -0.00195312 35.2 -0.00195312 31.194V11C-0.00195312 8.244 2.24005 6 4.99805 6C7.75605 6 9.99805 8.244 9.99805 11V22.994C10.78 22.406 11.718 22.062 12.716 22.006C14.062 21.918 15.328 22.382 16.322 23.272L21.8 28.314C22.66 29.104 23.386 30.012 23.996 30.986C24.608 30.008 25.334 29.106 26.194 28.314L31.662 23.282C32.666 22.382 33.946 21.918 35.278 22.008C36.278 22.062 37.216 22.406 37.996 22.996V11.002C37.996 8.246 40.238 6.002 42.996 6.002C45.754 6.002 47.996 8.246 47.996 11.002L48 11ZM16.112 18.858C16.676 14.948 20.068 12 24 12C27.932 12 31.324 14.948 31.888 18.858C31.966 19.404 31.61 20 30.896 20C30.408 20 29.98 19.64 29.908 19.142C29.486 16.21 26.946 14 24 14C21.054 14 18.514 16.21 18.092 19.142C18.012 19.688 17.494 20.058 16.96 19.99C16.414 19.91 16.034 19.404 16.112 18.858Z" fill="#304674"/>
</g>
<defs>
<clipPath id="clip0_78_1131">
<rect width="48" height="48" fill="white"/>
</clipPath>
</defs>
</svg>
