<svg width="22" height="22" viewBox="0 0 22 22" fill="none" xmlns="http://www.w3.org/2000/svg">
<g clip-path="url(#clip0_78_1310)">
<path d="M20.3226 1.66848L19.3601 0.834316C18.2509 -0.27485 16.4543 -0.27485 15.3451 0.834316C15.3176 0.861817 13.6218 3.07098 13.6218 3.07098C12.5768 4.17098 12.5768 5.90348 13.6218 6.99432L14.6851 8.33265C13.3468 11.3668 11.2659 13.4568 8.33261 14.7035L6.99428 13.631C5.90344 12.5768 4.16178 12.5768 3.07094 13.631C3.07094 13.631 0.861777 15.3268 0.834277 15.3543C-0.27489 16.4635 -0.27489 18.2602 0.788444 19.3235L1.70511 20.3777C2.75928 21.4318 4.18011 22.0093 5.72011 22.0093C12.7234 22.0093 22.0001 12.7235 22.0001 5.72932C22.0001 4.19848 21.4226 2.76848 20.3226 1.67765V1.66848ZM5.72011 20.1668C4.67511 20.1668 3.71261 19.7818 3.05261 19.1127L2.13594 18.0585C1.76011 17.6827 1.74178 17.0685 2.09928 16.6743C2.09928 16.6743 4.29011 14.9876 4.31761 14.9602C4.69344 14.5843 5.35344 14.5843 5.73844 14.9602C5.76594 14.9876 7.60844 16.4635 7.60844 16.4635C7.86511 16.6651 8.20428 16.7202 8.50678 16.601C12.3018 15.1527 15.0243 12.4393 16.5918 8.52515C16.7109 8.22265 16.6651 7.87432 16.4543 7.60848C16.4543 7.60848 14.9784 5.75682 14.9601 5.73848C14.5659 5.34432 14.5659 4.71182 14.9601 4.31765C14.9876 4.29015 16.6743 2.09932 16.6743 2.09932C17.0684 1.74182 17.6826 1.75098 18.1043 2.17265L19.0668 3.00682C19.7726 3.71265 20.1668 4.67515 20.1668 5.72015C20.1668 12.1002 11.2109 20.1668 5.72011 20.1668Z" fill="#B8994B"/>
</g>
<defs>
<clipPath id="clip0_78_1310">
<rect width="22" height="22" fill="white"/>
</clipPath>
</defs>
</svg>
