<svg width="22" height="22" viewBox="0 0 22 22" fill="none" xmlns="http://www.w3.org/2000/svg">
<g clip-path="url(#clip0_78_1340)">
<path d="M21.0831 10.0833C20.84 10.0833 20.6068 9.98672 20.4349 9.81481C20.263 9.6429 20.1665 9.40975 20.1665 9.16663C20.1645 7.22231 19.3913 5.35817 18.0164 3.98333C16.6416 2.60848 14.7774 1.83524 12.8331 1.8333C12.59 1.8333 12.3568 1.73672 12.1849 1.56481C12.013 1.3929 11.9164 1.15975 11.9164 0.916632C11.9164 0.673517 12.013 0.440359 12.1849 0.268451C12.3568 0.0965422 12.59 -3.49225e-05 12.8331 -3.49225e-05C15.2634 0.00263404 17.5935 0.969262 19.312 2.68777C21.0305 4.40627 21.9971 6.7363 21.9998 9.16663C21.9998 9.40975 21.9032 9.6429 21.7313 9.81481C21.5594 9.98672 21.3262 10.0833 21.0831 10.0833ZM18.3331 9.16663C18.3331 7.70794 17.7537 6.30899 16.7222 5.27754C15.6908 4.24609 14.2918 3.66663 12.8331 3.66663C12.59 3.66663 12.3568 3.76321 12.1849 3.93512C12.013 4.10703 11.9164 4.34018 11.9164 4.5833C11.9164 4.82641 12.013 5.05957 12.1849 5.23148C12.3568 5.40339 12.59 5.49997 12.8331 5.49997C13.8056 5.49997 14.7382 5.88627 15.4258 6.57391C16.1135 7.26154 16.4998 8.19417 16.4998 9.16663C16.4998 9.40975 16.5964 9.6429 16.7683 9.81481C16.9402 9.98672 17.1733 10.0833 17.4165 10.0833C17.6596 10.0833 17.8927 9.98672 18.0646 9.81481C18.2365 9.6429 18.3331 9.40975 18.3331 9.16663ZM20.3342 20.317L21.1684 19.3554C21.6993 18.8227 21.9974 18.1013 21.9974 17.3493C21.9974 16.5972 21.6993 15.8758 21.1684 15.3431C21.1399 15.3147 18.9345 13.618 18.9345 13.618C18.4051 13.1141 17.702 12.8335 16.9712 12.8346C16.2404 12.8356 15.5381 13.1181 15.0102 13.6235L13.263 15.0956C11.8369 14.5054 10.5413 13.6392 9.45088 12.5469C8.36041 11.4545 7.49648 10.1575 6.9087 8.7303L8.37537 6.98863C8.88111 6.46079 9.16397 5.75835 9.16517 5.02733C9.16636 4.29632 8.88579 3.59296 8.38178 3.06347C8.38178 3.06347 6.6832 0.860715 6.65478 0.832298C6.13178 0.305901 5.42267 0.00640193 4.68067 -0.00148804C3.93867 -0.009378 3.22336 0.274975 2.68928 0.790132L1.63512 1.7068C-4.59272 8.93196 8.81812 22.2392 16.2816 22C17.0353 22.0043 17.7822 21.8577 18.4782 21.5686C19.1743 21.2795 19.8054 20.854 20.3342 20.317Z" fill="#1B3468"/>
</g>
<defs>
<clipPath id="clip0_78_1340">
<rect width="22" height="22" fill="white"/>
</clipPath>
</defs>
</svg>
