<svg width="36" height="36" viewBox="0 0 36 36" fill="none" xmlns="http://www.w3.org/2000/svg">
<g opacity="0.6">
<path d="M34.4866 5.92531C34.4868 5.66036 34.4168 5.4001 34.2836 5.17103C34.1505 4.94195 33.959 4.75226 33.7287 4.62126C33.4984 4.49025 33.2375 4.42262 32.9726 4.42526C32.7077 4.42789 32.4482 4.50069 32.2205 4.63624C31.3426 5.15882 30.3973 5.55902 29.411 5.82574C28.0025 4.61709 26.206 3.95569 24.35 3.96245C22.3139 3.9648 20.3583 4.75834 18.8963 6.17553C17.4343 7.59271 16.5803 9.52259 16.5146 11.5577C12.5005 10.9176 8.86252 8.82246 6.29425 5.67188C6.13951 5.48414 5.94188 5.33635 5.71804 5.241C5.4942 5.14565 5.25072 5.10552 5.00812 5.12401C4.76566 5.14397 4.53171 5.2227 4.32651 5.35337C4.1213 5.48405 3.95102 5.66275 3.83038 5.87401C3.21167 6.95373 2.85633 8.16414 2.79321 9.40697C2.73008 10.6498 2.96096 11.89 3.4671 13.0268L3.46417 13.0298C3.23669 13.1699 3.04896 13.366 2.91893 13.5994C2.7889 13.8328 2.72092 14.0956 2.72149 14.3628C2.71874 14.5832 2.73196 14.8035 2.76105 15.022C2.91425 16.9094 3.75072 18.676 5.11359 19.9907C5.02113 20.1668 4.9647 20.3596 4.9476 20.5578C4.9305 20.756 4.95306 20.9556 5.01397 21.145C5.60814 22.9962 6.87172 24.5591 8.55744 25.5278C6.8448 26.1901 4.99557 26.421 3.17266 26.2002C2.83527 26.1578 2.49351 26.2314 2.20343 26.4089C1.91336 26.5863 1.6922 26.857 1.57623 27.1767C1.46027 27.4964 1.45638 27.8459 1.5652 28.1681C1.67403 28.4902 1.88911 28.7658 2.17516 28.9497C5.3103 30.9689 8.96068 32.0425 12.6898 32.042C16.9187 32.0896 21.0448 30.7382 24.4262 28.1982C27.8076 25.6581 30.2547 22.0718 31.387 17.997C31.9166 16.222 32.187 14.3797 32.1898 12.5273C32.1898 12.4292 32.1898 12.3281 32.1883 12.2271C32.9715 11.3825 33.5782 10.39 33.9728 9.30791C34.3675 8.2258 34.5422 7.0758 34.4866 5.92531ZM29.5267 10.7432C29.2789 11.0362 29.1535 11.4134 29.1766 11.7964C29.1912 12.0439 29.1898 12.2929 29.1898 12.5273C29.1867 14.0927 28.9573 15.6493 28.5086 17.1489C27.5839 20.616 25.5224 23.6725 22.6542 25.8288C19.7861 27.9852 16.2773 29.1166 12.6898 29.042C11.4011 29.0424 10.1169 28.891 8.86365 28.5908C10.4618 28.0758 11.956 27.2818 13.2772 26.2456C13.5206 26.054 13.6986 25.7918 13.787 25.495C13.8755 25.1982 13.8698 24.8812 13.771 24.5877C13.6721 24.2942 13.4849 24.0385 13.2349 23.8556C12.9849 23.6728 12.6845 23.5718 12.3748 23.5664C11.1281 23.547 9.93751 23.0444 9.05401 22.1646C9.27814 22.1221 9.5008 22.0693 9.72199 22.0064C10.046 21.9141 10.3296 21.7155 10.527 21.4426C10.7244 21.1696 10.8242 20.8381 10.8104 20.5015C10.7965 20.1649 10.6697 19.8428 10.4505 19.587C10.2313 19.3312 9.93238 19.1566 9.60187 19.0913C8.87818 18.9484 8.19719 18.6405 7.61184 18.1916C7.0265 17.7427 6.55256 17.1648 6.22687 16.5029C6.49796 16.5399 6.77079 16.5629 7.04425 16.5718C7.36913 16.5767 7.68714 16.4781 7.95232 16.2904C8.21749 16.1026 8.41607 15.8354 8.51935 15.5273C8.61832 15.2165 8.61323 14.8818 8.50485 14.5741C8.39646 14.2664 8.1907 14.0025 7.91877 13.8223C7.25899 13.3827 6.71853 12.7864 6.3458 12.0867C5.97307 11.387 5.7797 10.6058 5.78302 9.81301C5.78302 9.71341 5.78595 9.61379 5.79181 9.51565C9.1537 12.651 13.5143 14.4993 18.1053 14.7349C18.3371 14.744 18.5678 14.7004 18.7802 14.6072C18.9926 14.5141 19.1811 14.3739 19.3314 14.1973C19.4802 14.0189 19.5855 13.8085 19.6391 13.5825C19.6927 13.3565 19.6932 13.1212 19.6404 12.895C19.5546 12.5371 19.5109 12.1704 19.51 11.8023C19.5114 10.5191 20.0217 9.28882 20.9291 8.38146C21.8365 7.47411 23.0667 6.96376 24.3499 6.96241C25.0101 6.96064 25.6635 7.09576 26.2689 7.35923C26.8742 7.6227 27.4184 8.00881 27.867 8.49317C28.04 8.6793 28.2578 8.81807 28.4995 8.89628C28.7413 8.97449 28.9991 8.98954 29.2483 8.94001C29.8645 8.82009 30.4718 8.65859 31.0662 8.45662C30.6608 9.28608 30.1427 10.0555 29.5267 10.7432Z" fill="white"/>
</g>
</svg>
