<svg width="48" height="48" viewBox="0 0 48 48" fill="none" xmlns="http://www.w3.org/2000/svg">
<g clip-path="url(#clip0_78_1170)">
<path d="M24 0C10.766 0 0 10.766 0 24C0 37.234 10.766 48 24 48C37.234 48 48 37.234 48 24C48 10.766 37.234 0 24 0ZM24 46C11.87 46 2 36.13 2 24C2 11.87 11.87 2 24 2C36.13 2 46 11.87 46 24C46 36.13 36.13 46 24 46ZM32 28.748C32 31.644 29.644 34 26.748 34H25V37C25 37.552 24.552 38 24 38C23.448 38 23 37.552 23 37V34H21.148C19.19 34 17.362 32.948 16.384 31.25C16.106 30.772 16.27 30.16 16.75 29.884C17.226 29.604 17.838 29.77 18.116 30.25C18.74 31.33 19.904 32 21.15 32H26.75C28.542 32 30.002 30.542 30.002 28.748C30.002 27.142 28.852 25.792 27.266 25.538L20.422 24.438C17.862 24.026 16.002 21.846 16.002 19.252C16.002 16.356 18.358 14 21.254 14H23.002V11C23.002 10.448 23.45 10 24.002 10C24.554 10 25.002 10.448 25.002 11V14H26.854C28.812 14 30.638 15.054 31.618 16.75C31.896 17.228 31.732 17.84 31.252 18.116C30.78 18.388 30.162 18.23 29.886 17.75C29.262 16.67 28.098 16 26.852 16H21.252C19.46 16 18 17.458 18 19.252C18 20.858 19.15 22.208 20.736 22.462L27.58 23.562C30.14 23.974 32 26.156 32 28.748Z" fill="#304674"/>
</g>
<defs>
<clipPath id="clip0_78_1170">
<rect width="48" height="48" fill="white"/>
</clipPath>
</defs>
</svg>
